# xmcd CD database file generated by Grip 3.3.1
# 
# Track frame offsets:
#       150
#       19881
#       35885
#       53204
#       84517
#       105715
#       123796
#       151264
#       167545
# 
# Disc length: 2408 seconds
# 
# Revision: 3
# Processed by: cddbd v1.5.2PL0 Copyright (c) Steve Scherf et al.
# Submitted via: Grip 3.3.1
# 
DISCID=69096609
DTITLE=R. L. Burnside - Mr. Wizard
DYEAR=1997
DGENRE=Blues
TTITLE0=Over the Hill
TTITLE1=Alice Mae
TTITLE2=Georgia Women
TTITLE3=Snake Drive
TTITLE4=Rollin' and Tumblin'
TTITLE5=Out on the Road
TTITLE6=Highway 7
TTITLE7=Tribute to Fred
TTITLE8=You Gotta Move
EXTD=
EXTT0=
EXTT1=
EXTT2=
EXTT3=
EXTT4=
EXTT5=
EXTT6=
EXTT7=
EXTT8=
PLAYORDER=
